<?xml version="1.0" encoding="utf-8"?>
<!-- Generator: Adobe Illustrator 21.1.0, SVG Export Plug-In . SVG Version: 6.00 Build 0)  -->
<svg version="1.1" id="Layer_1" xmlns="http://www.w3.org/2000/svg" xmlns:xlink="http://www.w3.org/1999/xlink" x="0px" y="0px"
	 viewBox="0 0 50 50" style="enable-background:new 0 0 50 50;" xml:space="preserve">
<style type="text/css">
	.st0{fill:#FFF;}
</style>
<g>
	<path class="st0" d="M25,40.1c-0.3,0-0.6-0.1-0.8-0.3c-0.5-0.5-12.6-11.6-15.6-18c-1.2-2.7-1.1-5.4,0.5-7.6
		c1.8-2.6,5.2-4.3,8.2-4.1c2.8,0.2,6.1,2.9,7.6,4.3c1.3-1.4,4.3-4,7.7-4.3c3-0.2,6.4,1.5,8.2,4.1c1.6,2.3,1.7,5,0.5,7.6
		c-3,6.5-15.1,17.6-15.6,18C25.5,40,25.3,40.1,25,40.1z M16.9,12c-1.9,0-4.6,1.2-6.1,3.3c-0.8,1.2-1.5,3.1-0.3,5.6
		C13,26.2,22.4,35.2,25,37.7c2.6-2.4,12-11.5,14.5-16.8c1.2-2.5,0.5-4.5-0.3-5.6c-1.5-2.2-4.4-3.4-6.3-3.3c-3.7,0.2-7,4.3-7,4.3
		c-0.2,0.2-0.5,0.4-0.7,0.4c-0.3,0-0.6-0.1-0.8-0.3c-1.2-1.2-4.7-4.3-7.1-4.4C17.1,12,17,12,16.9,12z"/>
</g>
</svg>
