<?xml version="1.0" encoding="utf-8"?>
<!-- Generator: Adobe Illustrator 21.1.0, SVG Export Plug-In . SVG Version: 6.00 Build 0)  -->
<svg version="1.1" id="Layer_1" xmlns="http://www.w3.org/2000/svg" xmlns:xlink="http://www.w3.org/1999/xlink" x="0px" y="0px"
	 viewBox="0 0 100 50" style="enable-background:new 0 0 100 50;" xml:space="preserve">
<style type="text/css">
	.st0{fill:#FFF;}
</style>
<g>
	<path class="st0" d="M56.6,18c0.2,1.2,2,1.8,2,1.8c3.3-5.5,4.1-3.7,3.9-5.2c-0.1-0.8-1-1.6-2.9-1.3C58.4,13.4,56.4,16.7,56.6,18z"
		/>
	<path class="st0" d="M71,24.5c0-1.6-0.7-2.7-1.9-2.7c-1.3,0-3.5,1.9-5.7,4.2c1-1.6,1.5-2.3,1.5-2.6c0-0.7-1.5-1.6-3-1.6
		c-0.2,0-1.5,1.9-3.1,4.6c0,0.1-1.1,1-1.5,1.4c-0.5,0.5-3.9,3.1-4.6,3.7c1.2-3.8,4.8-8.4,4.8-9.1c0-0.8-1.4-1.7-2.8-1.7
		c-0.9,0-3.8,4.5-4.8,8.6c0,0.1-0.1,0.2-0.1,0.3c0,0.1-0.4,0.5-0.7,0.8c-0.3,0.3-4.3,3.7-4.5,3.3c3.7-11.1,8.7-15.9,8.7-16.7
		c0-0.8-2-1.9-2.6-1.9c-1.3,0-9.8,13.6-9.8,20.5c0,1,0.3,2.5,1.5,2.5c1.3,0,5.3-4.3,6.1-5c0.3-0.3,1-1.2,1-1.2
		c0,3.1,1.3,3.2,1.7,3.2c0.8,0,3.4-2.4,5-4c-2.3,4.4-4.3,9.2-4.3,11.9c0,1.9,1.6,2.9,2.4,2.7c0.3-0.1-0.3-0.4,0.2-1.6
		c1.5-3.7,2.9-6.8,4.2-9.4c3.8-7.5,9.1-10.2,9.1-10.2s-2.2,7.2-5.6,7.2c-0.3,0-0.3-0.5-0.7-0.1c-0.9,0.7,0.1,3,2.1,3
		C67.6,34.7,71,26.3,71,24.5z"/>
	<path class="st0" d="M82.6,21.8c-1.3,0-3.5,1.9-5.7,4.2c1-1.6,1.5-2.3,1.5-2.6c0-0.7-1.5-1.6-3-1.6c-0.6,0-10.1,15.6-10.1,21.3
		c0,1.9,1.6,2.9,2.4,2.7c0.3-0.1-0.3-0.4,0.2-1.6c1.5-3.7,2.9-6.8,4.2-9.4c3.8-7.5,9.1-10.2,9.1-10.2s-2.2,7.2-5.6,7.2
		c-0.3,0-0.3-0.5-0.7-0.1c-0.9,0.7,0.1,3,2.1,3c4.2,0,7.5-8.4,7.5-10.2C84.6,22.9,83.8,21.8,82.6,21.8z"/>
	<path class="st0" d="M96.3,30.8c-0.5,0.5-3.9,3.1-4.6,3.7c1.2-3.8,5-8.3,5-8.8c0-0.8-1.5-1.9-3-1.9v0c-0.7,0-1.5,0.3-2.3,0.5
		c1-2.4,0.5-3.9-1.5-3.9c-2.5,0-4.2,2.3-4.2,4.3c0,1.3,0.8,1.9,1.9,2.1c-1.3,1.9-3,4.1-4.5,5.2c-1.2,0.9-0.6,2.8,0.3,2
		c2.9-2.6,5.1-5.1,6.5-7.1c0.8-0.1,1.5-0.2,1.5-0.2c-1,2.1-2.9,6.5-2.9,8.4c0,2.6,0.9,3.2,1.3,3.2c1.1,0,5.3-4,6.4-5
		C97.8,31.8,97.7,29.5,96.3,30.8z M88.9,24.5c-1.5-0.3-1-1.9,0.1-1.9C89.6,22.6,89.5,23.4,88.9,24.5z"/>
	<path class="st0" d="M42.7,24.8c0.3-0.3-0.6-3.8-4.4-3.8c-1.1,0-2,0-2.8,0.2c2.2-3.3,4.4-6.2,5.9-8.3c4-0.7,8.5-1.7,13-1.7
		c2,0,1.8,1.3,2.5,0.5c0.3-0.3-0.7-4-4.6-4c-2.3,0-6,0.6-9.7,1.3c-0.8-0.7-2.2-1.3-2.5-1.3c-0.3,0-1,0.8-2,2c-2.1,0.3-4,0.6-5.4,0.6
		c-3.2,0-4.6-0.6-4.6-1.4c0-1.8,3.3-3.5,5.1-3.5c0.6,0,0.8-1.2,0-1.2c-3.3,0-6.8,2.2-6.8,4.7s2.8,4.7,8,4.7c0.3,0,0.5,0,0.8,0
		c-1.6,2.4-3.4,5.3-5,8.2c-0.4,0-0.9,0-1.3,0c-3.1,0-2.3-0.6-2.5-0.9c-0.5-0.4-1,0-1,0.6c0,1.7,1.7,2.7,3.3,3.2
		c-1.9,3.8-3.2,7.5-3.2,10.2c0,2.9,1.1,4.3,2.3,4.3c1.1,0,1.2-0.7,0.9-1c-0.1-0.1-0.8,0.4-0.8-0.9c0-3.3,2.2-7.8,5-12.4
		c2.4-0.2,4.3-0.6,7.2-0.6C42.1,24.3,42,25.6,42.7,24.8z"/>
</g>
<g>
	<path class="st0" d="M24.8,25.1c0,0-4-1.2-5.8-2.1c0,0,0,0,0,0c-0.4-2.7-1.7-5.9-1.7-6.1l-0.3-0.6l-1.3,0.4l0.3,0.7
		c0,0,1,2.4,1.5,4.8c-1.6-0.9-3.1-1.9-3.7-2.7c-0.3-0.4-0.4-0.8-0.3-1.3c0.1-0.7,0.6-1.4,1.2-1.8c0.8-0.5,4.5-1.3,6.5-1.7
		c0.3-0.1,0.5-0.3,0.6-0.6c0-0.3-0.2-0.6-0.5-0.7l-3.2-1c-0.8-1.2-3-2.8-6.3-2c-4.5,1.1-5.7,4.3-6,8.9c-0.2,2.4-0.2,5.1-0.2,7.5
		c0,2.2,0,4-0.2,4.9c-0.4,2-1.8,4.5-2.2,4.8c-0.3,0.1-0.5,0.5-0.4,0.8c0.1,0.3,0.4,0.5,0.6,0.5c0,0,0.1,0,0.1,0
		c0.2,0,4.1-0.9,5.8-2.3c1.7-1.5,3.8-3.8,4.9-8.6l0-0.1c0.9,0.1,2.1,0.3,3.2,0.4c-0.2,1.1-0.9,3.5-2.2,5.1c-1.7,2.1-2.8,2.6-2.8,2.6
		c-0.2,0.1-0.4,0.3-0.4,0.5c0,0.2,0,0.5,0.2,0.6l0.7,0.6l-2.3,0.2V38l4-0.4c0.3,0,0.5-0.2,0.6-0.5c0.1-0.3,0-0.5-0.2-0.7l-1.2-1
		c0.6-0.4,1.5-1.2,2.5-2.5c1.5-1.9,2.2-4.8,2.5-5.9c3.4,0.1,5.9-0.7,6-0.8c0.3-0.1,0.5-0.4,0.4-0.7C25.3,25.4,25.1,25.1,24.8,25.1z
		 M18,25.7c-2.9-0.3-5.8-0.8-5.8-0.8l-0.7-0.1L11.3,26l0.7,0.1c0,0,0.4,0.1,1,0.2l0,0.1c-1.1,5-3.5,7-4.4,7.8
		c-0.7,0.6-2.1,1.2-3.3,1.6c0.7-1.2,1.3-2.8,1.5-4c0.2-1,0.2-2.8,0.2-5.1c0-2.4,0-5,0.2-7.4c0.4-4.9,1.7-6.9,5-7.7
		c0.5-0.1,1-0.2,1.4-0.2c2.4,0,3.6,1.7,3.6,1.8c0.1,0.1,0.2,0.2,0.4,0.3l1,0.3c-1.7,0.4-3.7,0.9-4.5,1.4c-0.9,0.6-1.6,1.6-1.8,2.6
		c-0.2,0.9,0,1.7,0.5,2.3c1.1,1.6,4.4,3.3,5.7,3.9c1,0.5,2.4,1,3.7,1.4C21,25.7,19.6,25.8,18,25.7z"/>
	<path class="st0" d="M18.2,30.9l-0.6,1.4l1.3,1.8H17v1.3h3.2c0.3,0,0.5-0.1,0.6-0.4c0.1-0.2,0.1-0.5-0.1-0.7L18.2,30.9z"/>
	<circle class="st0" cx="14.7" cy="13" r="0.7"/>
</g>
</svg>
