<?xml version="1.0" encoding="utf-8"?>
<!-- Generator: Adobe Illustrator 21.1.0, SVG Export Plug-In . SVG Version: 6.00 Build 0)  -->
<svg version="1.1" id="Layer_1" xmlns="http://www.w3.org/2000/svg" xmlns:xlink="http://www.w3.org/1999/xlink" x="0px" y="0px"
	 viewBox="0 0 50 50" style="enable-background:new 0 0 50 50;" xml:space="preserve">
<style type="text/css">
	.st0{fill:#231F20;}
</style>
<g>
	<path class="st0" d="M9.2,45.3c-0.4,0-0.8-0.3-1-0.7c-0.2-0.5,0.1-1,0.5-1.2c0.6-0.4,2.8-4.2,3.3-7.2c0.2-1.3,0.2-4.1,0.2-7.3
		c0-3.6,0-7.6,0.3-11.2c0.5-6.8,2.3-11.6,9-13.3c4.9-1.2,8.2,1.3,9.5,3L35.9,9c0.4,0.1,0.7,0.6,0.7,1c0,0.5-0.4,0.8-0.8,0.9
		c-3.1,0.5-8.5,1.7-9.8,2.5c-0.9,0.6-1.6,1.6-1.8,2.6c-0.1,0.7,0,1.4,0.4,2c1.2,1.6,4.8,3.8,7.8,5.3c2.7,1.3,8.6,3.1,8.7,3.1
		c0.4,0.1,0.7,0.5,0.7,0.9c0,0.4-0.3,0.8-0.7,1c-0.2,0.1-4.5,1.6-10.3,1.1c-2-0.2-3.9-0.4-5.4-0.7l0,0.2c-1.6,7.2-4.7,10.6-7.3,12.8
		c-2.6,2.2-8.5,3.5-8.7,3.5C9.3,45.3,9.2,45.3,9.2,45.3z M24.2,6.1c-0.6,0-1.3,0.1-2.1,0.3c-4.9,1.2-6.9,4.2-7.5,11.5
		c-0.3,3.5-0.3,7.5-0.3,11c0,3.5,0,6.2-0.3,7.6c-0.3,1.8-1.2,4.2-2.3,6c1.8-0.6,3.9-1.4,5-2.3c1.5-1.3,5-4.3,6.6-11.7l0-0.1
		c-0.9-0.2-1.4-0.3-1.5-0.3l-1-0.2l0.4-2l1,0.2c0,0,4.3,0.9,8.7,1.3c2.3,0.2,4.4,0.1,6-0.2c-1.9-0.6-4-1.4-5.5-2.1
		c-2-1-6.9-3.5-8.6-5.9c-0.7-1-1-2.2-0.7-3.5c0.3-1.6,1.3-3.1,2.7-4c1.2-0.7,4.2-1.5,6.7-2.1l-1.5-0.5c-0.2-0.1-0.4-0.2-0.5-0.4
		C29.5,8.7,27.8,6.1,24.2,6.1z"/>
	<path class="st0" d="M30.5,24.6l-0.1-1c-0.5-3.8-2.4-8.5-2.5-8.6l-0.5-1.1l2-0.6l0.4,0.9c0.1,0.2,2.1,5,2.6,9.1l0.1,1L30.5,24.6z"
		/>
	<path class="st0" d="M20,45.9v-2l3.5-0.3l-1.1-1c-0.3-0.2-0.4-0.6-0.3-0.9c0.1-0.3,0.3-0.6,0.6-0.8c0,0,1.7-0.8,4.3-3.9
		c2.5-3.1,3.4-8.4,3.4-8.4l0.2-1l2,0.3l-0.2,1c0,0.2-1,5.8-3.8,9.4c-1.6,2-2.9,3.1-3.8,3.8l1.7,1.6c0.3,0.3,0.4,0.7,0.3,1.1
		c-0.1,0.4-0.5,0.6-0.8,0.7L20,45.9z"/>
	<path class="st0" d="M34.3,42h-4.8v-2h2.8l-1.9-2.6l0.9-2.2l3.8,5.2c0.2,0.3,0.3,0.7,0.1,1C35,41.8,34.6,42,34.3,42z"/>
	<circle class="st0" cx="26.1" cy="8.4" r="1"/>
</g>
</svg>
