<?xml version="1.0" encoding="utf-8"?>
<!-- Generator: Adobe Illustrator 21.1.0, SVG Export Plug-In . SVG Version: 6.00 Build 0)  -->
<svg version="1.1" id="Layer_1" xmlns="http://www.w3.org/2000/svg" xmlns:xlink="http://www.w3.org/1999/xlink" x="0px" y="0px"
	 viewBox="0 0 73 50" style="enable-background:new 0 0 73 50;" xml:space="preserve">
<style type="text/css">
	.st0{fill:#FFF;}
</style>
<g>
	<path class="st0" d="M25.8,35.8l-1.3,1.8l2,2.7h-3.4v2.1h5.4c0.4,0,0.7-0.2,0.9-0.6c0.2-0.3,0.1-0.8-0.1-1.1L25.8,35.8z"/>
	<circle class="st0" cx="20.2" cy="8" r="1"/>
	<path class="st0" d="M69.4,8.7l-4.9-1.6c-1.3-1.8-4.6-4.3-9.7-3.1c-6.9,1.7-8.7,6.7-9.2,13.6l-0.3,5.7c-3.9,1.7-7.8,3.1-9.1,3.2
		c-0.1,0-0.3,0-0.4,0.1c0,0-0.1,0-0.1-0.1c-0.1,0-6.1-1.8-8.9-3.2c0,0,0,0,0,0c-0.5-4.2-2.6-9.1-2.7-9.3l-0.4-0.9l-2.1,0.6l0.6,1.2
		c0,0,1.6,3.7,2.3,7.3c-2.4-1.3-4.8-2.9-5.7-4.2c-0.4-0.6-0.5-1.2-0.4-2c0.2-1,0.9-2.1,1.8-2.7c1.3-0.8,6.8-2,10-2.6
		c0.5-0.1,0.8-0.5,0.8-0.9c0-0.5-0.3-0.9-0.7-1l-4.9-1.6C24,5.3,20.7,2.7,15.6,4C8.7,5.7,7,10.6,6.4,17.6C6.1,21.2,6.1,25.4,6.1,29
		c0,3.3,0,6.2-0.2,7.5c-0.5,3.1-2.8,6.9-3.4,7.4C2,44,1.7,44.6,1.9,45.1c0.1,0.4,0.5,0.7,1,0.7c0.1,0,0.1,0,0.2,0
		c0.3-0.1,6.3-1.3,8.9-3.6c1.7-1.4,5.6-4.8,7.5-13.1l0-0.2c1.4,0.2,3.1,0.5,4.9,0.6c-0.4,1.6-1.3,5.4-3.3,7.8c-2.6,3.2-4.3,4-4.4,4
		c-0.3,0.1-0.6,0.4-0.6,0.8c-0.1,0.3,0.1,0.7,0.3,0.9l1.1,1l-4.1,0.4v2l6.6-0.7c0.4,0,0.7-0.3,0.9-0.7c0.1-0.4,0-0.8-0.3-1.1
		l-1.8-1.6c0.9-0.7,2.3-1.8,3.9-3.8c2.4-2.9,3.4-7.3,3.8-9c5.3,0.2,9-1.1,9.1-1.2c0,0,0,0,0.1,0c0.1,0,0.1,0.1,0.2,0.1
		c0.2,0.1,4.7,1,9.2,1.2c0,0.6,0.1,3.8-0.3,6.7c-0.3,1.9-1.4,5.9-3.5,7.1c-0.5,0.3-0.7,0.8-0.5,1.3c0.2,0.4,0.5,0.6,1,0.6
		c0.1,0,0.2,0,0.3,0c0.2-0.1,5.7-1.7,8.4-3.2c3.4-1.9,7.6-6.5,8.2-12.9c0-0.5,0-1.8,0.1-2.2c0-0.5-0.2-1-0.6-1.2
		c-0.6-0.4-1.4-0.1-2,0.2c0,0-2.1,1.2-7.1,1.6c-2.6,0.2-5.7-0.1-8.2-0.4c5.7-2.1,13.9-6.1,16-7.9c0.8-0.7,0.8-1.8,0.8-2.7
		c0-1.3-0.1-2.4,1.6-3.4c1.5-0.9,7.8-2.2,10.1-2.6c0.5-0.1,0.8-0.5,0.8-0.9C70.2,9.2,69.9,8.8,69.4,8.7z M47.2,29.8
		c0.7,0,1.4,0,2.1-0.1c4-0.3,6.3-1.2,7.3-1.6c0,0.6,0,1.1,0,1.1c-0.7,7.4-6.5,10.9-7.1,11.2c-1.1,0.6-2.9,1.3-4.5,1.9
		c1.3-2.4,1.7-5.1,1.8-5.6C47.3,33.9,47.2,30.7,47.2,29.8z M25.3,27.5c-4.4-0.4-8.8-1.3-8.9-1.3l-1-0.2L15,28l1,0.2
		c0.1,0,0.6,0.1,1.5,0.3l0,0.1c-1.7,7.6-5.3,10.7-6.8,12c-1.1,1-3.3,1.8-5.1,2.4c1.1-1.9,2-4.4,2.3-6.2c0.3-1.5,0.3-4.3,0.3-7.8
		c0-3.6,0-7.7,0.3-11.3C9.1,10.3,11.1,7.2,16.1,6c0.8-0.2,1.5-0.3,2.1-0.3c3.7,0,5.4,2.7,5.5,2.8c0.1,0.2,0.3,0.4,0.6,0.4l1.5,0.5
		c-2.6,0.6-5.7,1.4-6.9,2.1c-1.4,0.9-2.4,2.5-2.7,4c-0.2,1.3,0,2.6,0.8,3.6c1.7,2.4,6.7,5,8.8,6c1.5,0.7,3.7,1.5,5.6,2.2
		C29.7,27.6,27.6,27.7,25.3,27.5z M58.2,11.5c-2.8,1.6-2.7,3.9-2.6,5.2c0,0.4,0,1-0.1,1.1c-1.2,1.1-4.5,2.9-8.2,4.5l0.3-4.6
		c0.6-7.4,2.6-10.5,7.7-11.8c0.8-0.2,1.5-0.3,2.1-0.3c3.7,0,5.4,2.7,5.5,2.8c0.1,0.2,0.3,0.4,0.6,0.4l1.6,0.5
		C62.5,10,59.4,10.8,58.2,11.5z"/>
	<circle class="st0" cx="59.4" cy="8" r="1"/>
	<path class="st0" d="M63.2,14.1l-0.4-1l-2,0.5l0.5,1.1c0,0.1,2.2,6,2.4,8.7c0.3,4.2-0.7,8.7-1.8,10.9c-2.3,4.4-5.8,6.8-5.9,6.8
		c-0.2,0.2-0.4,0.4-0.4,0.7c0,0.3,0,0.6,0.2,0.8l1.3,1.6h-4.7v2.1h6.8c0.4,0,0.8-0.2,0.9-0.6c0.2-0.4,0.1-0.8-0.1-1.1l-2.1-2.5
		c1.3-1.1,3.8-3.4,5.6-6.9c1.3-2.4,2.4-7.3,2-12C65.5,20.4,63.3,14.3,63.2,14.1z"/>
</g>
</svg>
