<?xml version="1.0" encoding="utf-8"?>
<!-- Generator: Adobe Illustrator 21.1.0, SVG Export Plug-In . SVG Version: 6.00 Build 0)  -->
<svg version="1.1" id="Layer_1" xmlns="http://www.w3.org/2000/svg" xmlns:xlink="http://www.w3.org/1999/xlink" x="0px" y="0px"
	 viewBox="0 0 50 50" style="enable-background:new 0 0 50 50;" xml:space="preserve">
<style type="text/css">
	.st0{fill:#231F20;}
</style>
<path class="st0" d="M33,10.5H17c-3.6,0-6.5,2.9-6.5,6.5v16c0,3.6,2.9,6.5,6.5,6.5h16c3.6,0,6.5-2.9,6.5-6.5V17
	C39.5,13.4,36.6,10.5,33,10.5z M33,12.6c0.6,0,1.1,0.1,1.6,0.3l-0.1,0.2c-2.9,6.8-7.4,14-9.4,14c-2.3-0.1-7.6-7.9-10.7-13.7
	c0.7-0.5,1.6-0.8,2.6-0.8H33z M37.4,33c0,2.5-2,4.5-4.5,4.5H17c-2.5,0-4.5-2-4.5-4.5V17c0-0.7,0.2-1.3,0.4-1.9
	c2.2,3.9,8.1,13.9,12,14c0,0,0.1,0,0.1,0c4.3,0,9.6-11.3,11.2-15c0.7,0.8,1.1,1.8,1.1,2.9V33z"/>
</svg>
