<?xml version="1.0" encoding="utf-8"?>
<!-- Generator: Adobe Illustrator 21.1.0, SVG Export Plug-In . SVG Version: 6.00 Build 0)  -->
<svg version="1.1" id="Layer_1" xmlns="http://www.w3.org/2000/svg" xmlns:xlink="http://www.w3.org/1999/xlink" x="0px" y="0px"
	 viewBox="0 0 50 50" style="enable-background:new 0 0 50 50;" xml:space="preserve">
<style type="text/css">
	.st0{fill:#231F20;}
</style>
<g>
	<path class="st0" d="M38.9,34.5c1.8-2.7,2.9-5.9,2.9-9.5c0-9.3-7.5-16.8-16.8-16.8C15.7,8.2,8.2,15.7,8.2,25
		c0,3.9,1.4,7.7,3.9,10.8c3.2,3.9,7.9,6.1,12.9,6.1C30.8,41.8,35.9,38.9,38.9,34.5L38.9,34.5L38.9,34.5z M25,10.2
		c8.1,0,14.8,6.6,14.8,14.8c0,1.7-0.3,3.4-0.8,4.9c-0.1-2.4-0.6-5.5-1.8-7.2c-2.1-2.9-5.1-4.2-8.2-3.5c-1.7,0.4-3.1,1.2-3.8,1.8
		c-0.8-0.6-2.1-1.4-3.8-1.8c-3.2-0.7-6.1,0.6-8.2,3.5c-1.3,1.8-1.7,5.1-1.8,7.6c-0.6-1.7-1-3.5-1-5.3C10.2,16.9,16.9,10.2,25,10.2z
		 M25,39.8c-4.4,0-8.5-1.9-11.3-5.3c-0.1-0.2-0.2-0.3-0.4-0.5l0-0.5c-0.1-2,0-7.6,1.4-9.6c1.6-2.2,3.8-3.2,6.1-2.7
		c2.1,0.5,3.5,1.8,3.5,1.9c0.2,0.2,0.5,0.3,0.7,0.3c0,0,0,0,0,0c0.3,0,0.6-0.1,0.7-0.3c0,0,1.4-1.4,3.5-1.9c2.3-0.5,4.5,0.5,6.1,2.7
		c1.4,2,1.5,7.5,1.4,9.5l0,0.4C34.2,37.4,29.9,39.8,25,39.8z"/>
	<path class="st0" d="M27.7,27.9c-0.5,0-4.8,0-5.2,0c-0.9,0-0.5,1.2-0.3,1.7s2,4.1,2.2,4.5c0.3,0.8,0.7,0.7,0.7,0.7s0.3,0.2,0.7-0.7
		c0.2-0.4,2-4.1,2.2-4.5C28.2,29.1,28.6,27.9,27.7,27.9z"/>
	<circle class="st0" cx="19.7" cy="25.2" r="1"/>
	<circle class="st0" cx="30.5" cy="25.2" r="1"/>
</g>
</svg>
